<svg id="Warstwa_1" data-name="Warstwa 1" xmlns="http://www.w3.org/2000/svg" viewBox="0 0 757.06 223.26"><defs><style>.cls-1{fill:#fff;}</style></defs><title>logo-joko-white</title><path class="cls-1" d="M235.08,17.08c-62.41,0-113.18,50.07-113.18,111.63s50.77,111.63,113.18,111.63,113.18-50.08,113.18-111.63S297.49,17.08,235.08,17.08m93.24,111.63c0,50.7-41.83,92-93.24,92s-93.24-41.26-93.24-92,41.83-92,93.24-92,93.24,41.25,93.24,92" transform="translate(-23.7 -17.08)"/><rect class="cls-1" x="368.83" y="5.12" width="19.4" height="213.4"/><polygon class="cls-1" points="504.52 218.51 532.55 218.63 416.2 113.37 530.1 4.97 501.57 5.12 388.23 113.56 504.52 218.51"/><path class="cls-1" d="M48.73,204.24c-6,7.93-14.46,13.28-25,15.93v17.7c34.83-5.47,53.92-28.58,53.92-65.51V22.4H58.28V173.69c0,8.24-1.65,20.23-9.55,30.55" transform="translate(-23.7 -17.08)"/><path class="cls-1" d="M667.59,17.08c-62.41,0-113.18,50.07-113.18,111.63s50.77,111.63,113.18,111.63,113.18-50.08,113.18-111.63S730,17.08,667.59,17.08m93.24,111.63c0,50.7-41.83,92-93.24,92s-93.24-41.26-93.24-92,41.83-92,93.24-92,93.24,41.25,93.24,92" transform="translate(-23.7 -17.08)"/></svg>
